<?xml version="1.0" encoding="utf-8"?>
<!-- Generator: Adobe Illustrator 22.0.1, SVG Export Plug-In . SVG Version: 6.00 Build 0)  -->
<svg version="1.1" id="Layer_1" xmlns="http://www.w3.org/2000/svg" xmlns:xlink="http://www.w3.org/1999/xlink" x="0px" y="0px"
	 viewBox="0 0 26.1 10" style="enable-background:new 0 0 26.1 10;" xml:space="preserve">
<style type="text/css">
	.st0{fill:#422B68;}
	.st1{fill:#FFFFFF;}
	.st2{fill:url(#SVGID_1_);}
	.st3{fill:url(#SVGID_2_);}
	.st4{fill:url(#SVGID_3_);}
	.st5{fill:url(#SVGID_4_);}
	.st6{fill:url(#SVGID_5_);}
	.st7{fill:#EE4372;}
</style>
<g>
	<path class="st0" d="M7.2,4.1C7.2,3.8,7.1,3.6,7,3.4C6.9,3.2,6.8,3.1,6.6,2.9C6.4,2.7,6.2,2.5,5.8,2.3C5.7,2.3,5.6,2.2,5.5,2.2v0
		C5.1,2,4.6,2,4.1,2H2V8h2.1c0.7,0,1.3-0.1,1.8-0.4C6.3,7.4,6.7,7.1,7,6.6c0.3-0.5,0.4-1,0.4-1.6C7.4,4.7,7.3,4.3,7.2,4.1z M5.7,6.6
		C5.4,7,4.8,7.2,4,7.2H3V2.8H4c0.8,0,1.3,0.2,1.7,0.6C5.9,3.5,5.9,3.6,6,3.7c0,0,0,0.1,0,0.1C6.2,4.1,6.3,4.5,6.3,5
		C6.3,5.7,6.1,6.2,5.7,6.6z"/>
	<path class="st0" d="M10.7,7.1c-0.2,0.1-0.5,0.2-0.7,0.2c-0.3,0-0.5-0.1-0.7-0.2C9,7,8.9,6.9,8.7,6.6C8.6,6.4,8.5,6.2,8.5,5.9h3.8
		l0-0.2c0-0.4-0.1-0.8-0.3-1.2c-0.2-0.3-0.5-0.6-0.8-0.8c-0.4-0.2-0.7-0.3-1.2-0.3c-0.4,0-0.8,0.1-1.2,0.3C8.4,4,8.1,4.2,7.9,4.6
		C7.7,5,7.6,5.3,7.6,5.8c0,0.4,0.1,0.8,0.3,1.2c0.2,0.4,0.5,0.6,0.9,0.8C9.1,8,9.5,8.1,10,8.1c0.4,0,0.9-0.1,1.2-0.3
		c0.4-0.2,0.8-0.5,1.1-1.2l-1,0C11.1,6.8,10.9,7,10.7,7.1z M9.1,4.5C9.3,4.3,9.6,4.2,10,4.2c0.2,0,0.4,0,0.6,0.1
		c0.2,0.1,0.3,0.2,0.5,0.4c0.1,0.2,0.2,0.4,0.3,0.6H8.6C8.6,4.9,8.8,4.7,9.1,4.5z"/>
	<path class="st0" d="M15.5,3.4l-1.4,2.9l-1.4-2.9h-1l2.4,4.8l2.4-4.8H15.5z"/>
</g>
<g>
	<linearGradient id="SVGID_1_" gradientUnits="userSpaceOnUse" x1="18.7516" y1="7.7999" x2="16.37" y2="3.6749">
		<stop  offset="0" style="stop-color:#9BC5E9"/>
		<stop  offset="6.772689e-02" style="stop-color:#9BC2E7"/>
		<stop  offset="0.1434" style="stop-color:#9BB9E1"/>
		<stop  offset="0.223" style="stop-color:#9BAAD6"/>
		<stop  offset="0.3052" style="stop-color:#9B95C7"/>
		<stop  offset="0.3895" style="stop-color:#9A7CB6"/>
		<stop  offset="0.4743" style="stop-color:#995DA3"/>
		<stop  offset="0.5218" style="stop-color:#984698"/>
		<stop  offset="0.6097" style="stop-color:#B1458C"/>
		<stop  offset="0.7227" style="stop-color:#CB4480"/>
		<stop  offset="0.8289" style="stop-color:#DE4477"/>
		<stop  offset="0.9243" style="stop-color:#E94372"/>
		<stop  offset="1" style="stop-color:#EF4370"/>
	</linearGradient>
	<path class="st2" d="M19.2,4c-0.4-0.5-1-0.7-1.7-0.7c-0.7,0-1.2,0.2-1.7,0.7c-0.4,0.4-0.7,1-0.7,1.7c0,0.4,0.1,0.7,0.2,1
		c0.1,0.2,0.3,0.5,0.5,0.7c0.4,0.4,1,0.7,1.7,0.7c0.7,0,1.2-0.2,1.7-0.7C19.6,7,19.8,6.6,19.9,6c0-0.1,0-0.2,0-0.3
		C19.9,5.1,19.7,4.5,19.2,4z M18.9,7.1c-0.4,0.4-0.8,0.6-1.3,0.6c-0.5,0-1-0.2-1.3-0.6C16.1,7,16,6.9,15.9,6.7
		c-0.1-0.3-0.2-0.6-0.2-1c0-0.6,0.2-1,0.5-1.4C16.6,4,17,3.8,17.6,3.8c0.5,0,1,0.2,1.3,0.6c0.4,0.4,0.5,0.8,0.5,1.4
		c0,0.1,0,0.2,0,0.3C19.3,6.5,19.2,6.9,18.9,7.1z"/>
	<linearGradient id="SVGID_2_" gradientUnits="userSpaceOnUse" x1="22.3193" y1="7.3091" x2="20.1543" y2="3.5592">
		<stop  offset="0" style="stop-color:#9BC5E9"/>
		<stop  offset="6.772689e-02" style="stop-color:#9BC2E7"/>
		<stop  offset="0.1434" style="stop-color:#9BB9E1"/>
		<stop  offset="0.223" style="stop-color:#9BAAD6"/>
		<stop  offset="0.3052" style="stop-color:#9B95C7"/>
		<stop  offset="0.3895" style="stop-color:#9A7CB6"/>
		<stop  offset="0.4743" style="stop-color:#995DA3"/>
		<stop  offset="0.5218" style="stop-color:#984698"/>
		<stop  offset="0.6097" style="stop-color:#B1458C"/>
		<stop  offset="0.7227" style="stop-color:#CB4480"/>
		<stop  offset="0.8289" style="stop-color:#DE4477"/>
		<stop  offset="0.9243" style="stop-color:#E94372"/>
		<stop  offset="1" style="stop-color:#EF4370"/>
	</linearGradient>
	<path class="st3" d="M21.4,3.6c-0.2,0.1-0.3,0.2-0.5,0.5l0-0.7h-0.4l0,4.8h0.4l0-2.5c0-0.5,0.1-1,0.3-1.3c0.2-0.3,0.6-0.5,1.1-0.5
		V3.4C22,3.4,21.7,3.4,21.4,3.6z"/>
	<linearGradient id="SVGID_3_" gradientUnits="userSpaceOnUse" x1="24.1913" y1="7.6104" x2="22.026" y2="3.86">
		<stop  offset="0" style="stop-color:#9BC5E9"/>
		<stop  offset="6.772689e-02" style="stop-color:#9BC2E7"/>
		<stop  offset="0.1434" style="stop-color:#9BB9E1"/>
		<stop  offset="0.223" style="stop-color:#9BAAD6"/>
		<stop  offset="0.3052" style="stop-color:#9B95C7"/>
		<stop  offset="0.3895" style="stop-color:#9A7CB6"/>
		<stop  offset="0.4743" style="stop-color:#995DA3"/>
		<stop  offset="0.5218" style="stop-color:#984698"/>
		<stop  offset="0.6097" style="stop-color:#B1458C"/>
		<stop  offset="0.7227" style="stop-color:#CB4480"/>
		<stop  offset="0.8289" style="stop-color:#DE4477"/>
		<stop  offset="0.9243" style="stop-color:#E94372"/>
		<stop  offset="1" style="stop-color:#EF4370"/>
	</linearGradient>
	<path class="st4" d="M22.9,3.4l0,4.8h0.4l0-4.8H22.9z"/>
	<linearGradient id="SVGID_4_" gradientUnits="userSpaceOnUse" x1="25.5753" y1="7.6104" x2="23.41" y2="3.86">
		<stop  offset="0" style="stop-color:#9BC5E9"/>
		<stop  offset="6.772689e-02" style="stop-color:#9BC2E7"/>
		<stop  offset="0.1434" style="stop-color:#9BB9E1"/>
		<stop  offset="0.223" style="stop-color:#9BAAD6"/>
		<stop  offset="0.3052" style="stop-color:#9B95C7"/>
		<stop  offset="0.3895" style="stop-color:#9A7CB6"/>
		<stop  offset="0.4743" style="stop-color:#995DA3"/>
		<stop  offset="0.5218" style="stop-color:#984698"/>
		<stop  offset="0.6097" style="stop-color:#B1458C"/>
		<stop  offset="0.7227" style="stop-color:#CB4480"/>
		<stop  offset="0.8289" style="stop-color:#DE4477"/>
		<stop  offset="0.9243" style="stop-color:#E94372"/>
		<stop  offset="1" style="stop-color:#EF4370"/>
	</linearGradient>
	<path class="st5" d="M24.3,3.4l0,4.8h0.4l0-4.8H24.3z"/>
</g>
<path class="st7" d="M22.9,2.6c-0.1-0.1-0.1-0.1-0.1-0.2c0-0.1,0-0.2,0.1-0.2C23,2.1,23,2.1,23.1,2.1c0.1,0,0.2,0,0.2,0.1
	s0.1,0.1,0.1,0.2c0,0.1,0,0.2-0.1,0.2s-0.1,0.1-0.2,0.1C23,2.7,23,2.7,22.9,2.6z"/>
<path class="st7" d="M24.3,2.6c-0.1-0.1-0.1-0.1-0.1-0.2c0-0.1,0-0.2,0.1-0.2c0.1-0.1,0.1-0.1,0.2-0.1c0.1,0,0.2,0,0.2,0.1
	s0.1,0.1,0.1,0.2c0,0.1,0,0.2-0.1,0.2s-0.1,0.1-0.2,0.1C24.4,2.7,24.3,2.7,24.3,2.6z"/>
</svg>
